<?xml version="1.0" standalone="no"?><!DOCTYPE svg PUBLIC "-//W3C//DTD SVG 1.1//EN" "http://www.w3.org/Graphics/SVG/1.1/DTD/svg11.dtd"><svg t="1614359930780" class="icon" viewBox="0 0 1024 1024" version="1.1" xmlns="http://www.w3.org/2000/svg" p-id="3883" xmlns:xlink="http://www.w3.org/1999/xlink" width="200" height="200"><defs><style type="text/css"></style></defs><path d="M66.262613 21.333333c3.776 0 6.869333 3.2 6.869334 7.082667v891.648c0 3.882667 3.072 7.082667 6.848 7.082667h937.173333c3.754667 0 6.848 3.2 6.848 7.082666v61.354667a6.997333 6.997333 0 0 1-6.848 7.082667H13.718613A13.973333 13.973333 0 0 1 0.00128 988.501333V28.416C0.00128 24.512 3.094613 21.333333 6.84928 21.333333z m285.781334 529.130667c7.530667 0 13.696 6.378667 13.589333 14.165333v273.429334c0 7.786667-6.186667 14.144-13.717333 14.144H159.958613a13.973333 13.973333 0 0 1-13.696-14.144V564.629333c0-7.786667 6.165333-14.165333 13.696-14.165333zM644.523947 172.373333c7.68 0 13.738667 6.250667 13.738666 14.165334v651.52c0 7.786667-6.186667 14.144-13.717333 14.144h-191.957333a13.973333 13.973333 0 0 1-13.717334-14.144V186.538667c0-7.786667 6.186667-14.165333 13.717334-14.165334zM937.174613 399.189333c7.552 0 13.717333 6.378667 13.717334 14.165334v424.704c0 7.786667-6.165333 14.144-13.717334 14.144h-191.957333a13.973333 13.973333 0 0 1-13.696-14.144V413.354667c0-7.786667 6.165333-14.165333 13.696-14.165334zM285.76128 625.984H226.347947a6.997333 6.997333 0 0 0-6.848 7.082667v136.533333c0 3.904 3.072 7.082667 6.848 7.082667h59.413333c3.776 0 6.869333-3.2 6.869333-7.082667v-136.533333a6.997333 6.997333 0 0 0-6.869333-7.082667zM578.262613 247.893333h-59.413333a6.997333 6.997333 0 0 0-6.848 7.082667v514.624c0 3.904 3.093333 7.082667 6.848 7.082667h59.413333c3.776 0 6.869333-3.2 6.869334-7.082667V254.976a6.997333 6.997333 0 0 0-6.869334-7.082667z m292.629334 226.816h-59.413334a6.997333 6.997333 0 0 0-6.848 7.082667v287.808c0 3.904 3.072 7.082667 6.826667 7.082667h59.434667c3.776 0 6.848-3.2 6.848-7.082667V481.792a6.997333 6.997333 0 0 0-6.848-7.082667z" fill="#707070" p-id="3884"></path></svg>